<svg width="70" height="67" viewBox="0 0 70 67" fill="none" xmlns="http://www.w3.org/2000/svg">
<g clip-path="url(#clip0_1962_14957)">
<path d="M66.6804 32.9851V61.7695C66.6804 63.8661 64.9651 65.5771 62.863 65.5771H7.13439C5.03235 65.5771 3.31698 63.8661 3.31698 61.7695V32.9851H66.6804ZM68.1146 31.5547H1.88281V61.7695C1.88281 64.6585 4.23091 67.0075 7.13439 67.0075H62.8701C65.7665 67.0075 68.1216 64.6655 68.1216 61.7695V31.5547H68.1146Z" fill="#DE706C"/>
<path d="M66.977 28.2719C67.8628 28.2719 68.5869 28.9941 68.5869 29.8777C68.5869 30.7612 67.8628 31.4834 66.977 31.4834H3.03003C2.14422 31.4834 1.42011 30.7612 1.42011 29.8777C1.42011 28.9941 2.14422 28.2719 3.03003 28.2719H66.977ZM66.977 26.8555H3.03003C1.35683 26.8555 0 28.2088 0 29.8777C0 31.5465 1.35683 32.8998 3.03003 32.8998H66.977C68.6502 32.8998 70.007 31.5465 70.007 29.8777C70.007 28.2088 68.6502 26.8555 66.977 26.8555Z" fill="#DE706C"/>
<path d="M57.6179 1.42344C61.2104 1.42344 64.135 4.34045 64.135 7.9236V26.6457H5.05995V7.9236C5.05995 4.34045 7.98452 1.42344 11.577 1.42344H57.6179ZM57.6179 0H11.577C7.19011 0 3.63281 3.54809 3.63281 7.9236V28.0622H65.5621V7.9236C65.5621 3.54809 62.0048 0 57.6179 0Z" fill="#DE706C"/>
<path d="M56.1335 4.71231C58.6503 4.71231 60.6961 6.75282 60.6961 9.26312V26.7511H8.63025V9.26312C8.63025 6.75282 10.676 4.71231 13.1929 4.71231H56.1405M56.1405 3.21875H13.1929C9.84648 3.21875 7.13281 5.9254 7.13281 9.26312V28.2377H62.1936V9.26312C62.1936 5.9254 59.4799 3.21875 56.1335 3.21875H56.1405Z" fill="#DE706C"/>
<path d="M27.1267 54.5903C28.5258 54.3589 30.7895 55.3195 32.1815 55.6421L37.419 56.8481C38.9235 57.1987 40.4279 57.5423 41.9394 57.8929C43.3244 58.2155 44.2102 58.3557 45.1452 59.5758C45.5389 60.0877 45.792 60.7468 45.6936 61.3849C45.3632 63.5166 42.8745 63.18 41.3348 63.201C39.0992 63.2361 36.8706 63.2642 34.635 63.2992C33.011 63.3203 31.3871 63.3483 29.7631 63.3764C28.5258 63.3974 26.9369 63.748 25.8121 63.1029C24.4904 62.3456 23.5835 60.0036 23.6608 58.531C23.7593 56.7921 25.0247 55.3686 26.5995 54.7445C26.7471 54.6884 26.9018 54.6323 27.0564 54.6043C27.0775 54.6043 27.0986 54.5973 27.1197 54.5903H27.1267Z" stroke="#DE706C" stroke-miterlimit="10"/>
<path d="M23.8346 57.3994L20.4882 54.3772C20.4882 54.3772 17.866 53.6409 18.808 56.5228H16.3826C16.3826 56.5228 14.6321 57.799 16.4529 58.942L19.0119 59.0121L18.5971 59.8115C18.4425 60.106 18.2315 60.3725 18.1612 60.702C18.0839 61.0456 18.105 61.4172 18.2245 61.7538C18.2878 61.9291 18.3792 62.0974 18.5198 62.2236C18.9205 62.5812 19.497 62.3288 19.8977 62.1044C21.9154 60.9615 23.8698 59.9587 23.8698 59.9587" stroke="#DE706C" stroke-miterlimit="10"/>
<path d="M32.8062 55.6195C32.8062 55.6195 39.2037 44.0356 31.6602 41.6235C30.4018 41.2168 28.6443 41.0976 27.3437 41.3991C27.0062 41.4763 26.6688 41.5955 26.3735 41.7778C26.0501 41.9671 25.8252 42.2265 25.4244 42.2546C24.637 42.3107 23.9973 41.5955 23.3575 41.2449C22.8232 40.9503 21.9374 40.9644 21.3328 40.9714C20.5806 40.9854 19.8073 41.1186 19.1394 41.4833C19.1394 41.4833 16.1094 43.0259 16.1094 44.9753" stroke="#DE706C" stroke-miterlimit="10"/>
<path d="M18.6664 55.2917C18.6664 55.2917 14.8982 50.8952 15.5731 46.8633" stroke="#DE706C" stroke-miterlimit="10"/>
<path d="M25.3281 42.0921V38.537V35.7812" stroke="#DE706C" stroke-miterlimit="10"/>
<path d="M25.1263 40.2153C25.1263 40.2153 20.4794 41.1549 18.2578 35.6504C18.2578 35.6504 22.497 34.6407 25.2599 38.0696" stroke="#DE706C" stroke-miterlimit="10"/>
<path d="M35.0859 49.4774L39.2619 38.6719C39.2619 38.6719 51.375 45.0528 53.934 53.5093L42.6223 58.0742" stroke="#DE706C" stroke-miterlimit="10"/>
<path d="M44.1074 55.8564C45.6682 55.8564 46.9336 54.5944 46.9336 53.0376C46.9336 51.4808 45.6682 50.2188 44.1074 50.2188C42.5466 50.2188 41.2812 51.4808 41.2812 53.0376C41.2812 54.5944 42.5466 55.8564 44.1074 55.8564Z" stroke="#DE706C" stroke-miterlimit="10"/>
<path d="M45.0505 44.8008C45.2755 45.0953 45.409 45.509 45.409 45.9718C45.409 46.8693 44.8818 47.5986 44.228 47.5986C43.5741 47.5986 43.0469 46.8693 43.0469 45.9718C43.0469 45.53 43.1734 45.1303 43.3773 44.8429" stroke="#DE706C" stroke-width="1.03" stroke-miterlimit="10"/>
<path d="M49.42 51.1038C49.195 51.3211 48.9068 51.4474 48.5904 51.4474C47.8804 51.4474 47.2969 50.7882 47.2969 49.9678C47.2969 49.1474 47.8734 48.4883 48.5904 48.4883C48.9279 48.4883 49.2372 48.6355 49.4622 48.881" stroke="#DE706C" stroke-width="0.93" stroke-miterlimit="10"/>
<path d="M38.4145 41.2232C38.4145 41.2232 42.4288 40.7323 41.2618 45.1639C40.0947 49.5955 36.1719 47.0852 36.1719 47.0852" stroke="#DE706C" stroke-width="1.03" stroke-miterlimit="10"/>
<path d="M34.2422 52.6133C34.2422 52.6133 38.4603 53.1953 38.1018 56.9327" stroke="#DE706C" stroke-width="1.03" stroke-miterlimit="10"/>
<path d="M39.2971 52.4019C39.8725 52.139 40.0019 51.1923 39.5862 50.2875C39.1705 49.3827 38.3671 48.8624 37.7918 49.1254C37.2164 49.3884 37.087 50.335 37.5027 51.2398C37.9184 52.1446 38.7218 52.6649 39.2971 52.4019Z" stroke="#DE706C" stroke-width="1.03" stroke-miterlimit="10"/>
<path d="M39.2686 38.6718C39.2686 38.6718 38.2352 34.2823 41.8698 35.313C41.8698 35.313 55.1077 43.9098 57.484 50.8026C57.484 50.8026 58.4682 55.2763 53.9407 53.5093" stroke="#DE706C" stroke-width="1.03" stroke-miterlimit="10"/>
<path d="M29.6172 63.0163V60.4219" stroke="#DE706C" stroke-width="1.03" stroke-miterlimit="10"/>
<path d="M32.7109 63.0655V61.5859" stroke="#DE706C" stroke-width="1.03" stroke-miterlimit="10"/>
<path d="M28.9844 54.6523V58.3196" stroke="#DE706C" stroke-width="1.03" stroke-miterlimit="10"/>
<path d="M34.1484 55.9922V58.2781" stroke="#DE706C" stroke-width="1.03" stroke-miterlimit="10"/>
<path d="M41.7734 58.0039V61.3627" stroke="#DE706C" stroke-width="1.03" stroke-miterlimit="10"/>
<path d="M38.1875 62.9752V61.0469" stroke="#DE706C" stroke-width="1.03" stroke-miterlimit="10"/>
<path d="M34.6797 8.31641V23.9322" stroke="#DE706C" stroke-width="2.43" stroke-linecap="round" stroke-linejoin="round"/>
<path d="M32.3984 23.5888L34.6903 21.7656L37.3547 23.5888" stroke="#DE706C" stroke-width="2.43" stroke-linecap="round" stroke-linejoin="round"/>
<path d="M32.3984 8.75L34.6903 10.5731L37.3547 8.75" stroke="#DE706C" stroke-width="2.43" stroke-linecap="round" stroke-linejoin="round"/>
<path d="M28.0859 12.4258L41.7246 20.0899" stroke="#DE706C" stroke-width="2.43" stroke-linecap="round" stroke-linejoin="round"/>
<path d="M40.307 21.9117L39.8359 19.0297L42.7324 17.6133" stroke="#DE706C" stroke-width="2.43" stroke-linecap="round" stroke-linejoin="round"/>
<path d="M27.3438 14.6265L30.0574 13.5326L29.7692 10.3281" stroke="#DE706C" stroke-width="2.43" stroke-linecap="round" stroke-linejoin="round"/>
<path d="M27.9531 19.9493L41.5918 12.2852" stroke="#DE706C" stroke-width="2.43" stroke-linecap="round" stroke-linejoin="round"/>
<path d="M40.1741 10.4688L39.7031 13.3507L42.5996 14.7671" stroke="#DE706C" stroke-width="2.43" stroke-linecap="round" stroke-linejoin="round"/>
<path d="M27.2031 17.7461L29.9168 18.84L29.6286 22.0445" stroke="#DE706C" stroke-width="2.43" stroke-linecap="round" stroke-linejoin="round"/>
</g>
<defs>
<clipPath id="clip0_1962_14957">
<rect width="70" height="67" fill="white"/>
</clipPath>
</defs>
</svg>
