<svg width="79" height="79" viewBox="0 0 79 79" fill="none" xmlns="http://www.w3.org/2000/svg">
<path d="M23.2863 26.3039C23.115 25.8332 23.1368 25.3137 23.3468 24.859C24.1345 23.0412 27.285 17.14 34.8008 18.1457C43.2045 19.2727 25.1008 30.9753 23.2863 26.3039Z" stroke="#4FA77C" stroke-width="1.5" stroke-linecap="round" stroke-linejoin="round"/>
<path d="M18.6117 24.0914C18.6117 24.0914 19.26 12.2133 33.6193 12.8615C47.9786 13.5098 39.2904 25.9302 37.8302 27.4025C36.9668 28.275 31.2139 33.1583 24.0312 31.6679C22.909 31.4429 21.8616 30.9384 20.9859 30.2014C20.1101 29.4642 19.4342 28.5183 19.0207 27.4511C18.6147 26.3877 18.3694 25.1911 18.6117 24.0914Z" stroke="#4FA77C" stroke-width="1.5" stroke-linecap="round" stroke-linejoin="round"/>
<path d="M63.8118 29.7382C61.6608 34.2822 58.9646 36.3634 55.6324 37.9993C51.3209 38.3833 47.279 40.2617 44.2055 43.3098C42.5646 44.2551 40.9835 45.3002 39.4705 46.4392C28.0012 55.0577 34.1449 59.1323 22.0485 63.7066C11.8122 67.5873 3.54202 47.4388 7.3651 30.0168C9.66743 23.3947 14.7083 8.56579 27.965 6.6906C45.3899 5.83934 68.7132 19.3716 63.8118 29.7382Z" stroke="#4FA77C" stroke-width="1.5" stroke-linecap="round" stroke-linejoin="round"/>
<path d="M69.6585 30.5176C69.0808 32.3205 68.1161 33.9757 66.832 35.3671C65.548 36.7584 63.9755 37.8525 62.2244 38.5727C60.6302 38.1378 58.9846 37.9188 57.332 37.9215C56.7655 37.9215 56.205 37.9455 55.6507 37.9972C51.3392 38.3812 47.2973 40.2597 44.2238 43.3075C41.51 45.9795 39.6826 49.4206 38.989 53.1652C32.9455 59.2786 30.6522 64.677 29.2647 66.4491C27.338 68.912 18.7164 71.3749 11.7609 66.3703C9.36769 64.6497 7.17142 62.0413 5.51434 58.2455C-0.965507 43.4015 1.77001 23.9801 10.2644 12.832C18.7588 1.68385 31.7156 1.9262 31.7156 1.9262C43.6694 2.25035 56.8593 7.98498 62.5244 11.8929C62.603 11.9565 63.4938 12.6684 64.7752 13.762C64.8987 13.8973 65.011 14.0421 65.1114 14.1952C66.7685 16.7217 71.964 23.1197 69.6585 30.5176Z" stroke="#4FA77C" stroke-width="1.5" stroke-linecap="round" stroke-linejoin="round"/>
<path d="M64.7744 13.7559C63.4928 12.6623 62.6022 11.9382 62.5234 11.8867C63.3421 12.4225 64.0973 13.0496 64.7744 13.7559Z" stroke="#4FA77C" stroke-width="1.5" stroke-linecap="round" stroke-linejoin="round"/>
<path d="M38.6656 56.579C38.6615 59.3851 39.2933 62.1557 40.5136 64.6827C40.1924 65.2299 39.8895 65.7924 39.6047 66.37C32.5493 81.117 20.1682 74.6585 20.1682 74.6585L11.7344 66.3731C18.702 71.3777 27.3114 68.9146 29.2382 66.4517C30.6255 64.6796 32.9188 59.2812 38.9625 53.168C38.7588 54.2934 38.6594 55.4353 38.6656 56.579Z" stroke="#4FA77C" stroke-width="1.5" stroke-linecap="round" stroke-linejoin="round"/>
<path d="M72.5939 40.5376C71.802 41.4183 70.8831 42.1757 69.8677 42.7854C67.6853 40.7904 65.0573 39.3466 62.2031 38.5745C63.9542 37.8543 65.5267 36.7602 66.8108 35.3688C68.095 33.9775 69.0596 32.3225 69.6374 30.5194C71.9427 23.1217 66.7474 16.7235 65.0932 14.191C64.9928 14.0379 64.8805 13.8931 64.7569 13.7578C67.2865 15.9238 71.3278 19.5895 73.5876 22.7186C77.0594 27.5022 76.7715 35.3544 72.5939 40.5376Z" stroke="#4FA77C" stroke-width="1.5" stroke-linecap="round" stroke-linejoin="round"/>
<path d="M75.9818 56.5777C75.9818 61.5254 74.0164 66.2704 70.5179 69.7688C67.0195 73.2673 62.2745 75.2327 57.327 75.2327C53.8169 75.2338 50.3777 74.2444 47.4046 72.3785C44.4315 70.5127 42.0451 67.8458 40.5198 64.6845C39.2998 62.1574 38.668 59.3868 38.672 56.5808C38.6678 55.4368 38.7693 54.295 38.9749 53.1697C39.6684 49.4251 41.4958 45.9838 44.2097 43.3121C47.2832 40.264 51.3249 38.3857 55.6366 38.0015C56.1909 37.9501 56.7513 37.9258 57.3179 37.9258C58.9704 37.9233 60.6159 38.1422 62.2103 38.5771C65.0644 39.3492 67.6924 40.7929 69.8747 42.788C71.7992 44.5325 73.337 46.6609 74.3889 49.0361C75.4407 51.4111 75.9833 53.9801 75.9818 56.5777Z" stroke="#4FA77C" stroke-width="1.5" stroke-linecap="round" stroke-linejoin="round"/>
<path d="M56.1875 42.5508V69.8698" stroke="#4FA77C" stroke-width="1.5" stroke-linecap="round" stroke-linejoin="round"/>
<path d="M52.1875 69.2799L56.1834 66.0898L60.8274 69.2799" stroke="#4FA77C" stroke-width="1.5" stroke-linecap="round" stroke-linejoin="round"/>
<path d="M52.1875 43.3164L56.1834 46.5034L60.8274 43.3164" stroke="#4FA77C" stroke-width="1.5" stroke-linecap="round" stroke-linejoin="round"/>
<path d="M44.6719 49.7461L68.4738 63.1541" stroke="#4FA77C" stroke-width="1.5" stroke-linecap="round" stroke-linejoin="round"/>
<path d="M65.9976 66.3452L65.1797 61.3013L70.2357 58.8203" stroke="#4FA77C" stroke-width="1.5" stroke-linecap="round" stroke-linejoin="round"/>
<path d="M43.375 53.6032L48.1131 51.6885L47.6131 46.0781" stroke="#4FA77C" stroke-width="1.5" stroke-linecap="round" stroke-linejoin="round"/>
<path d="M44.4375 62.9158L68.2394 49.5078" stroke="#4FA77C" stroke-width="1.5" stroke-linecap="round" stroke-linejoin="round"/>
<path d="M65.7633 46.3164L64.9453 51.3603L70.0044 53.8414" stroke="#4FA77C" stroke-width="1.5" stroke-linecap="round" stroke-linejoin="round"/>
<path d="M43.1406 59.0586L47.8816 60.9731L47.3818 66.5836" stroke="#4FA77C" stroke-width="1.5" stroke-linecap="round" stroke-linejoin="round"/>
</svg>
